<svg xmlns="http://www.w3.org/2000/svg" xmlns:xlink="http://www.w3.org/1999/xlink"><defs><style>
    .sprite-symbol-usage {display: none;}
    .sprite-symbol-usage:target {display: inline;}
  </style><symbol viewBox="0 0 16 16" id="ic-arrow"><path fill-opacity=".8" fill-rule="evenodd" d="M8 9.586l5.293-5.293a1 1 0 011.414 1.414l-6 6a1 1 0 01-1.414 0l-6-6a1 1 0 011.414-1.414L8 9.586z" /></symbol><symbol viewBox="0 0 32 32" id="ic-logo"><g fill="none" fill-rule="evenodd"><path fill="#FFF" d="M27.314 4.683c-6.24-6.244-16.392-6.244-22.634-.002-6.24 6.24-6.24 16.396 0 22.637 6.242 6.243 16.397 6.242 22.634-.001 6.248-6.24 6.248-16.396 0-22.634" /><g fill="#2A3052"><path d="M11.368 20.323s.18 1.353 1.32 1.98l-.304-.565s.58-1.523-1.016-1.415" /><path d="M16.655 10.598c1.255.447 1.659 1.785 1.659 1.785-1.597.364-1.26-1.266-1.26-1.266l-.399-.519zm8.4 14.46c-.163.16-.324.317-.49.467-3.604 2.938-6.38 1.476-6.413 1.476-1.881-.376-2.815-.381-3.344-.734-.132-.09-.558-.318-.656-.263-.384.23-.913.347-1.456-.086a2.055 2.055 0 01-.135-.123c-.6-.597-.396-1.213-.198-1.427.139-.14-.105-.534-.105-.534s-.706-1.05-1.188-1.68c-.533-.694-.605-2.07-.611-2.088l-.007-.02c-.537-.638-.593-.834-.779-1.145-.108-.184-.274-.356-.416-.504a2.63 2.63 0 01-.25-.275c-.014-.018-.018-.045-.012-.088.05-.297.69-.954.828-1.046.17-.11.9-.553.9-.553s.41-.645 1.108-.645c.63.004 1.015-.035 2.102.32l.451.143c.758.242 1.426.529 1.956.758.45.194.811.35 1.087.423.938.246 2.59-.512 2.94-.832.572-.52.819-.87.822-1.155.005-.16-.066-.3-.228-.47-.085-.078-.193-.223-.33-.36-.021-.022-.044-.048-.072-.067-1.586-1.685-1.312-2.742-1.31-2.759.068-.758-.367-1.244-.834-1.748l-.076-.095c-.024-.022-.054-.061-.054-.061.675.11 1.135.382 2.455.53.75.08.513.073 1.112.058.825-.026 1.478-.098 1.523-.286-.08-.068-.445.02-2.197-.649-.81-.31-.94-.357-1.455-.528-.662-.223-1.381-.532-1.381-.532 2.858.75 3.793 1.043 5.1 1.061.506.01.807-.052.983-.088.186-.033.763-.164.829-.364.02-.035-.554.094-1.614-.256-3.336-1.102-3.62-1.653-5.47-2.372-.645-.25-.854-.388-2.802-.891-.893-.23-2.243-.098-2.426.017-2.529-.594-3.103-.53-3.846-.37 4.948-3.172 11.63-2.6 15.96 1.728a13.08 13.08 0 011.561 1.89l.061.092a12.676 12.676 0 012.13 7.074c0 3.42-1.333 6.635-3.753 9.058zM26.607 5.39C20.754-.463 11.239-.463 5.387 5.389c-5.85 5.85-5.85 15.371 0 21.223 5.852 5.852 15.37 5.85 21.22-.001 5.857-5.85 5.857-15.372 0-21.221z" /></g></g></symbol><symbol viewBox="0 0 19 20" id="ic-stage-1"><g transform="translate(0 1)" fill="none" fill-rule="evenodd"><path fill-opacity=".4" fill="#000" fill-rule="nonzero" d="M10.402 13h-1.09V5.775l-2.185.803v-.984l3.105-1.166h.17z" /><circle stroke-opacity=".4" stroke="#000" cx="9.5" cy="9" r="9" /></g></symbol><symbol viewBox="0 0 19 20" id="ic-stage-2"><g transform="translate(0 1)" fill="none" fill-rule="evenodd"><path d="M12.43 13H6.84v-.78l2.953-3.28c.437-.497.74-.9.905-1.21a2.02 2.02 0 00.25-.964c0-.446-.135-.81-.405-1.096-.27-.285-.629-.428-1.078-.428-.54 0-.958.154-1.257.46-.299.307-.448.734-.448 1.28H6.676c0-.785.253-1.42.759-1.904.505-.484 1.182-.726 2.03-.726.793 0 1.42.208 1.88.624.462.416.692.97.692 1.66 0 .84-.535 1.84-1.605 3l-2.286 2.48h4.284V13z" fill-opacity=".4" fill="#000" fill-rule="nonzero" /><circle stroke-opacity=".4" stroke="#000" cx="9.5" cy="9" r="9" /></g></symbol><symbol viewBox="0 0 19 20" id="ic-stage-3"><g transform="translate(0 1)" fill="none" fill-rule="evenodd"><path d="M8.416 8.207h.814c.512-.008.915-.143 1.207-.404.293-.262.44-.615.44-1.06 0-1-.498-1.5-1.494-1.5-.469 0-.843.133-1.122.4-.28.268-.42.623-.42 1.064H6.759c0-.676.247-1.237.741-1.685.494-.447 1.122-.67 1.884-.67.805 0 1.435.212 1.892.638.457.426.686 1.018.686 1.776 0 .37-.12.73-.36 1.078-.24.347-.568.607-.982.779.469.148.831.395 1.087.738.256.344.384.764.384 1.26 0 .766-.25 1.373-.75 1.822-.5.45-1.15.674-1.951.674-.801 0-1.452-.217-1.954-.65-.502-.434-.753-1.006-.753-1.717h1.09c0 .45.146.809.439 1.078.293.27.685.404 1.178.404.523 0 .923-.136 1.2-.41.278-.273.417-.666.417-1.177 0-.497-.152-.877-.457-1.143-.305-.266-.744-.402-1.319-.41h-.814v-.885z" fill-opacity=".4" fill="#000" fill-rule="nonzero" /><circle stroke-opacity=".4" stroke="#000" cx="9.5" cy="9" r="9" /></g></symbol><symbol viewBox="0 0 19 20" id="ic-stage-4"><g transform="translate(0 1)" fill="none" fill-rule="evenodd"><path d="M11.416 10.135H12.6v.885h-1.184V13h-1.09v-1.98H6.441v-.64l3.82-5.911h1.155v5.666zm-3.744 0h2.654V5.95l-.129.235-2.525 3.949z" fill-opacity=".4" fill="#000" fill-rule="nonzero" /><circle stroke-opacity=".4" stroke="#000" cx="9.5" cy="9" r="9" /></g></symbol><symbol viewBox="0 0 16 16" id="ic-trade-active"><path fill="#2A3052" fill-rule="evenodd" d="M1 8h2a1 1 0 011 1v7H0V9a1 1 0 011-1zm12-8h2a1 1 0 011 1v15h-4V1a1 1 0 011-1zM7 4h2a1 1 0 011 1v11H6V5a1 1 0 011-1z" /></symbol><symbol viewBox="0 0 16 16" id="icon-info-blue"><g fill="none"><circle cx="8" cy="8" r="8" fill="#2196F3" /><g fill="#FFF" transform="translate(6.5 4)"><circle cx="1.5" cy="1" r="1" /><rect width="2" height="5" x=".5" y="3" rx="1" /></g></g></symbol></defs><use id="ic-arrow-usage" xlink:href="#ic-arrow" class="sprite-symbol-usage" /><use id="ic-logo-usage" xlink:href="#ic-logo" class="sprite-symbol-usage" /><use id="ic-stage-1-usage" xlink:href="#ic-stage-1" class="sprite-symbol-usage" /><use id="ic-stage-2-usage" xlink:href="#ic-stage-2" class="sprite-symbol-usage" /><use id="ic-stage-3-usage" xlink:href="#ic-stage-3" class="sprite-symbol-usage" /><use id="ic-stage-4-usage" xlink:href="#ic-stage-4" class="sprite-symbol-usage" /><use id="ic-trade-active-usage" xlink:href="#ic-trade-active" class="sprite-symbol-usage" /><use id="icon-info-blue-usage" xlink:href="#icon-info-blue" class="sprite-symbol-usage" /></svg>