<svg xmlns="http://www.w3.org/2000/svg" xmlns:xlink="http://www.w3.org/1999/xlink"><defs><style>
    .sprite-symbol-usage {display: none;}
    .sprite-symbol-usage:target {display: inline;}
  </style><symbol viewBox="0 0 48 42" id="google-drive-active"><g fill="none" fill-rule="nonzero"><path fill="#FFCF45" d="M32.001 0H15.999l14.4 27h16.002z" /><path fill="#1CA362" d="M14.241 3.078L0 27.999 8.001 42l13.965-24.438z" /><path fill="#4686F5" d="M18.312 30l-6.858 12H40.5L48 30z" /></g></symbol><symbol viewBox="0 0 16 16" id="ic-arrow-1"><path fill-opacity=".8" fill-rule="evenodd" d="M8 9.586l5.293-5.293a1 1 0 011.414 1.414l-6 6a1 1 0 01-1.414 0l-6-6a1 1 0 011.414-1.414L8 9.586z" /></symbol><symbol viewBox="0 0 16 16" id="ic-arrow-2"><path fill="#333" fill-rule="evenodd" d="M8.707.293a1 1 0 010 1.414L3.414 7H15a1 1 0 010 2L3.414 8.999l5.293 5.294a1 1 0 01-1.414 1.414l-7-7-.073-.082a1.005 1.005 0 01-.007-.008l.08.09A1.008 1.008 0 010 8.02v-.04c0-.023.002-.046.004-.07L0 8a1.008 1.008 0 01.213-.617.97.97 0 01.08-.09l7-7a1 1 0 011.414 0z" /></symbol><symbol viewBox="0 0 16 16" id="ic-close"><path fill="#999" fill-rule="evenodd" d="M8 0a8 8 0 110 16A8 8 0 018 0zM5.146 5.146a.5.5 0 00-.057.638l.057.07L7.293 8l-2.147 2.146a.5.5 0 00-.057.638l.057.07a.5.5 0 00.708 0L8 8.707l2.146 2.147a.5.5 0 00.765-.638l-.057-.07L8.707 8l2.147-2.146a.5.5 0 00.057-.638l-.057-.07a.5.5 0 00-.708 0L8 7.293 5.854 5.146a.5.5 0 00-.708 0z" /></symbol><symbol viewBox="0 0 32 32" id="ic-logo"><g fill="none" fill-rule="evenodd"><path fill="#FFF" d="M27.314 4.683c-6.24-6.244-16.392-6.244-22.634-.002-6.24 6.24-6.24 16.396 0 22.637 6.242 6.243 16.397 6.242 22.634-.001 6.248-6.24 6.248-16.396 0-22.634" /><g fill="#2A3052"><path d="M11.368 20.323s.18 1.353 1.32 1.98l-.304-.565s.58-1.523-1.016-1.415" /><path d="M16.655 10.598c1.255.447 1.659 1.785 1.659 1.785-1.597.364-1.26-1.266-1.26-1.266l-.399-.519zm8.4 14.46c-.163.16-.324.317-.49.467-3.604 2.938-6.38 1.476-6.413 1.476-1.881-.376-2.815-.381-3.344-.734-.132-.09-.558-.318-.656-.263-.384.23-.913.347-1.456-.086a2.055 2.055 0 01-.135-.123c-.6-.597-.396-1.213-.198-1.427.139-.14-.105-.534-.105-.534s-.706-1.05-1.188-1.68c-.533-.694-.605-2.07-.611-2.088l-.007-.02c-.537-.638-.593-.834-.779-1.145-.108-.184-.274-.356-.416-.504a2.63 2.63 0 01-.25-.275c-.014-.018-.018-.045-.012-.088.05-.297.69-.954.828-1.046.17-.11.9-.553.9-.553s.41-.645 1.108-.645c.63.004 1.015-.035 2.102.32l.451.143c.758.242 1.426.529 1.956.758.45.194.811.35 1.087.423.938.246 2.59-.512 2.94-.832.572-.52.819-.87.822-1.155.005-.16-.066-.3-.228-.47-.085-.078-.193-.223-.33-.36-.021-.022-.044-.048-.072-.067-1.586-1.685-1.312-2.742-1.31-2.759.068-.758-.367-1.244-.834-1.748l-.076-.095c-.024-.022-.054-.061-.054-.061.675.11 1.135.382 2.455.53.75.08.513.073 1.112.058.825-.026 1.478-.098 1.523-.286-.08-.068-.445.02-2.197-.649-.81-.31-.94-.357-1.455-.528-.662-.223-1.381-.532-1.381-.532 2.858.75 3.793 1.043 5.1 1.061.506.01.807-.052.983-.088.186-.033.763-.164.829-.364.02-.035-.554.094-1.614-.256-3.336-1.102-3.62-1.653-5.47-2.372-.645-.25-.854-.388-2.802-.891-.893-.23-2.243-.098-2.426.017-2.529-.594-3.103-.53-3.846-.37 4.948-3.172 11.63-2.6 15.96 1.728a13.08 13.08 0 011.561 1.89l.061.092a12.676 12.676 0 012.13 7.074c0 3.42-1.333 6.635-3.753 9.058zM26.607 5.39C20.754-.463 11.239-.463 5.387 5.389c-5.85 5.85-5.85 15.371 0 21.223 5.852 5.852 15.37 5.85 21.22-.001 5.857-5.85 5.857-15.372 0-21.221z" /></g></g></symbol><symbol viewBox="0 0 16 16" id="ic-rename"><path fill="#000" fill-rule="nonzero" d="M14.246.703a2.38 2.38 0 00-3.378 0l-9.467 9.515a.534.534 0 00-.137.235L.02 14.97a.535.535 0 00.136.52.53.53 0 00.517.137l4.495-1.252a.53.53 0 00.234-.137l9.467-9.515a2.411 2.411 0 000-3.394l-.622-.626zm-11.69 9.862l7.75-7.788 2.498 2.512-7.748 7.787-2.5-2.511zm-.498 1.006l1.996 2.007-2.761.769.765-2.776zm12.06-7.602l-.563.565-2.5-2.511.564-.566a1.322 1.322 0 011.876 0l.623.626a1.34 1.34 0 010 1.886z" /></symbol><symbol viewBox="0 0 16 16" id="ic-search"><path fill="#D6D6D6" fill-rule="evenodd" d="M6.5 12a5.5 5.5 0 100-11 5.5 5.5 0 000 11zm0-12a6.5 6.5 0 014.936 10.729l4.418 4.417a.5.5 0 01-.708.708l-4.417-4.418A6.5 6.5 0 116.5 0z" /></symbol><symbol viewBox="0 0 19 20" id="ic-stage-1"><g transform="translate(0 1)" fill="none" fill-rule="evenodd"><path fill-opacity=".4" fill="#000" fill-rule="nonzero" d="M10.402 13h-1.09V5.775l-2.185.803v-.984l3.105-1.166h.17z" /><circle stroke-opacity=".4" stroke="#000" cx="9.5" cy="9" r="9" /></g></symbol><symbol viewBox="0 0 19 20" id="ic-stage-2"><g transform="translate(0 1)" fill="none" fill-rule="evenodd"><path d="M12.43 13H6.84v-.78l2.953-3.28c.437-.497.74-.9.905-1.21a2.02 2.02 0 00.25-.964c0-.446-.135-.81-.405-1.096-.27-.285-.629-.428-1.078-.428-.54 0-.958.154-1.257.46-.299.307-.448.734-.448 1.28H6.676c0-.785.253-1.42.759-1.904.505-.484 1.182-.726 2.03-.726.793 0 1.42.208 1.88.624.462.416.692.97.692 1.66 0 .84-.535 1.84-1.605 3l-2.286 2.48h4.284V13z" fill-opacity=".4" fill="#000" fill-rule="nonzero" /><circle stroke-opacity=".4" stroke="#000" cx="9.5" cy="9" r="9" /></g></symbol><symbol viewBox="0 0 19 20" id="ic-stage-3"><g transform="translate(0 1)" fill="none" fill-rule="evenodd"><path d="M8.416 8.207h.814c.512-.008.915-.143 1.207-.404.293-.262.44-.615.44-1.06 0-1-.498-1.5-1.494-1.5-.469 0-.843.133-1.122.4-.28.268-.42.623-.42 1.064H6.759c0-.676.247-1.237.741-1.685.494-.447 1.122-.67 1.884-.67.805 0 1.435.212 1.892.638.457.426.686 1.018.686 1.776 0 .37-.12.73-.36 1.078-.24.347-.568.607-.982.779.469.148.831.395 1.087.738.256.344.384.764.384 1.26 0 .766-.25 1.373-.75 1.822-.5.45-1.15.674-1.951.674-.801 0-1.452-.217-1.954-.65-.502-.434-.753-1.006-.753-1.717h1.09c0 .45.146.809.439 1.078.293.27.685.404 1.178.404.523 0 .923-.136 1.2-.41.278-.273.417-.666.417-1.177 0-.497-.152-.877-.457-1.143-.305-.266-.744-.402-1.319-.41h-.814v-.885z" fill-opacity=".4" fill="#000" fill-rule="nonzero" /><circle stroke-opacity=".4" stroke="#000" cx="9.5" cy="9" r="9" /></g></symbol><symbol viewBox="0 0 19 20" id="ic-stage-4"><g transform="translate(0 1)" fill="none" fill-rule="evenodd"><path d="M11.416 10.135H12.6v.885h-1.184V13h-1.09v-1.98H6.441v-.64l3.82-5.911h1.155v5.666zm-3.744 0h2.654V5.95l-.129.235-2.525 3.949z" fill-opacity=".4" fill="#000" fill-rule="nonzero" /><circle stroke-opacity=".4" stroke="#000" cx="9.5" cy="9" r="9" /></g></symbol><symbol viewBox="0 0 16 16" id="ic-start"><g fill="none" fill-rule="evenodd"><path fill="#333" d="M13.648 6.904c-.053 0-.106.001-.158.005V4.234c0-.95-.774-1.724-1.724-1.724H9.09A2.354 2.354 0 006.745 0a2.354 2.354 0 00-2.346 2.51H1.724C.774 2.51 0 3.284 0 4.234V7.48a.469.469 0 00.625.442A1.416 1.416 0 012.51 9.255 1.416 1.416 0 01.625 10.59a.468.468 0 00-.625.44v3.246C0 15.226.773 16 1.724 16H4.97a.469.469 0 00.434-.646 1.416 1.416 0 011.34-1.864 1.416 1.416 0 011.334 1.885.469.469 0 00.442.625h3.246c.95 0 1.724-.773 1.724-1.724v-2.675A2.354 2.354 0 0016 9.255a2.354 2.354 0 00-2.352-2.351zm0 3.765a1.41 1.41 0 01-.47-.08.468.468 0 00-.626.441v3.246a.787.787 0 01-.786.787H9.09a2.354 2.354 0 00-2.346-2.51 2.354 2.354 0 00-2.346 2.51H1.724a.787.787 0 01-.786-.787v-2.675a2.354 2.354 0 002.51-2.346A2.354 2.354 0 00.938 6.91V4.234c0-.433.352-.786.786-.786h3.245a.468.468 0 00.442-.625A1.416 1.416 0 016.744.938a1.416 1.416 0 011.334 1.885.469.469 0 00.442.625h3.246c.433 0 .786.353.786.786V7.48a.469.469 0 00.625.442 1.416 1.416 0 011.885 1.333c0 .78-.634 1.414-1.414 1.414z" /><path fill="#FFF" d="M13.648 6.904c-.053 0-.106.001-.158.005V4.234c0-.95-.774-1.724-1.724-1.724H9.09A2.354 2.354 0 006.745 0a2.354 2.354 0 00-2.346 2.51H1.724C.774 2.51 0 3.284 0 4.234V7.48a.469.469 0 00.625.442A1.416 1.416 0 012.51 9.255 1.416 1.416 0 01.625 10.59a.468.468 0 00-.625.44v3.246C0 15.226.773 16 1.724 16H4.97a.469.469 0 00.434-.646 1.416 1.416 0 011.34-1.864 1.416 1.416 0 011.334 1.885.469.469 0 00.442.625h3.246c.95 0 1.724-.773 1.724-1.724v-2.675A2.354 2.354 0 0016 9.255a2.354 2.354 0 00-2.352-2.351z" /></g></symbol><symbol viewBox="0 0 16 16" id="ic-trade-active"><path fill="#2A3052" fill-rule="evenodd" d="M1 8h2a1 1 0 011 1v7H0V9a1 1 0 011-1zm12-8h2a1 1 0 011 1v15h-4V1a1 1 0 011-1zM7 4h2a1 1 0 011 1v11H6V5a1 1 0 011-1z" /></symbol><symbol viewBox="0 0 16 16" id="icon-info-blue"><g fill="none"><circle cx="8" cy="8" r="8" fill="#2196F3" /><g fill="#FFF" transform="translate(6.5 4)"><circle cx="1.5" cy="1" r="1" /><rect width="2" height="5" x=".5" y="3" rx="1" /></g></g></symbol><symbol viewBox="0 0 16 16" id="icon-info-outline"><path fill="#333" fill-rule="evenodd" d="M8 0a8 8 0 110 16A8 8 0 018 0zm0 1a7 7 0 100 14A7 7 0 008 1zm0 6a.5.5 0 01.5.5v4a.5.5 0 11-1 0v-4A.5.5 0 018 7zm0-2.5A.75.75 0 118 6a.75.75 0 010-1.5z" /></symbol><symbol viewBox="0 0 12 14" id="new-file"><g fill="none" fill-rule="evenodd" stroke="#333"><path d="M2 1h6.086a1 1 0 01.707.293L10 2.5l.707.707a1 1 0 01.293.707V12a1 1 0 01-1 1H2a1 1 0 01-1-1V2a1 1 0 011-1z" /><g transform="translate(3.5 5)"><rect width="4" height="1" x=".5" y="2.5" rx=".5" /><rect width="1" height="4" x="2.5" y=".5" rx=".5" /></g></g></symbol><symbol viewBox="0 0 13 12" id="open"><g fill="none" fill-rule="evenodd" stroke="#333"><path d="M8.5 11.5h-7a1 1 0 01-1-1V2.75A.75.75 0 011.25 2 .75.75 0 002 1.25.75.75 0 012.75.5h1.5a.75.75 0 01.75.75c0 .414.336.75.75.75H8.5a1 1 0 011 1v1.5" /><path d="M.939 10.184l1.833-5.5A1 1 0 013.721 4h6.892a1 1 0 01.948 1.316l-1.833 5.5a1 1 0 01-.949.684H1.887a1 1 0 01-.948-1.316z" /></g></symbol><symbol viewBox="0 0 13 15" id="performance-window"><path fill="none" fill-rule="nonzero" stroke="#333" d="M12.455 8.07l.005.022-.03-.121.03-.12-.006.027c.008-.072-.03-.182-.21-.333a1.392 1.392 0 00-.192-.135l-.011-.007L2.627 1.54a.526.526 0 00-.204-.059 2.316 2.316 0 00-.32-.01l-.109.002c-.323 0-.441.076-.498.214a.708.708 0 00-.042.285v12c0 .115.01.2.046.281.061.14.182.216.494.216l.108.001c.164.002.24 0 .321-.01.09-.01.155-.03.193-.052l9.436-5.876c.075-.044.139-.09.192-.135.18-.152.218-.262.21-.332zm0-.192l-.001.001v-.003z" /></symbol><symbol viewBox="0 0 12 14" id="rearrange"><g fill="none" fill-rule="evenodd" stroke="#333" transform="translate(-1 -1)"><path stroke-linecap="round" d="M1.5 1.5v13" /><rect width="9" height="3" x="3.5" y="1.5" rx="1" /><rect width="7" height="3" x="3.5" y="6.5" rx="1" /><rect width="5" height="3" x="3.5" y="11.5" rx="1" /></g></symbol><symbol viewBox="0 0 11 11" id="redo"><g fill="none" fill-rule="evenodd" stroke="#333" stroke-linecap="round" stroke-linejoin="round"><path d="M8 0l2 2-1.995 2" /><path d="M9 2H5a4 4 0 100 8h2" /></g></symbol><symbol viewBox="0 0 14 16" id="run-icon"><path fill="#FFF" fill-rule="nonzero" d="M13.207 6.841L2.284.158C1.961-.03 1.56.002 1.258.002.046.002.052.91.052 1.14v13.661c0 .195-.006 1.139 1.206 1.139.302 0 .703.03 1.026-.156L13.207 9.1c.897-.518.742-1.13.742-1.13s.155-.61-.742-1.129z" /></symbol><symbol viewBox="0 0 12 12" id="save"><g fill="none" fill-rule="evenodd" transform="translate(-2 -2)"><path d="M0 0h16v16H0z" /><path stroke="#333" d="M2.667 2.5a.167.167 0 00-.167.167v10.666c0 .092.075.167.167.167h10.666a.167.167 0 00.167-.167V4.414a.5.5 0 00-.146-.353l-1.415-1.415a.5.5 0 00-.353-.146h-8.92z" /><rect width="7" height="3" x="4.5" y="2.5" stroke="#333" rx=".667" /><rect width="7" height="4" x="4.5" y="9.5" stroke="#333" rx=".667" /></g></symbol><symbol viewBox="0 0 48 43" id="shape"><path fill="#2A3052" fill-rule="nonzero" d="M0 0v32.06h48V0H0zm44.832 29.015H3.168V3.14h41.76v25.876h-.096zM5 5h38v22H5V5zm25.528 34.86h2.976V43H13.92v-3.14h3.552v-7.8h13.056v7.8z" /></symbol><symbol viewBox="0 0 14 16" id="stop-icon"><g fill="#FFF" fill-rule="evenodd" transform="translate(-1)"><rect width="6" height="16" x="1" rx="1" /><rect width="6" height="16" x="9" rx="1" /></g></symbol><symbol viewBox="0 0 11 11" id="undo"><g fill="none" fill-rule="evenodd" stroke="#333" stroke-linecap="round" stroke-linejoin="round"><path d="M3 0L1 2l1.995 2" /><path d="M2 2h4a4 4 0 110 8H4" /></g></symbol><symbol viewBox="0 0 15 15" id="zoom-in"><g fill="none" fill-rule="evenodd" transform="translate(-1 -1)"><path d="M0 0h16v16H0z" /><circle cx="7.5" cy="7.5" r="5.5" stroke="#333" /><rect width="5" height="1" x="5" y="7.5" stroke="#333" rx=".5" /><rect width="1" height="5" x="7.5" y="5" stroke="#333" rx=".5" /><path stroke="#333" stroke-linecap="round" d="M11.5 11.5l3.565 3.565" /></g></symbol><symbol viewBox="0 0 15 15" id="zoom-out"><g fill="none" fill-rule="evenodd" transform="translate(-1 -1)"><path d="M0 0h16v16H0z" /><circle cx="7.5" cy="7.5" r="5.5" stroke="#333" /><rect width="5" height="1" x="5" y="7.5" stroke="#333" rx=".5" /><path stroke="#333" stroke-linecap="round" d="M11.5 11.5l3.565 3.565" /></g></symbol></defs><use id="google-drive-active-usage" xlink:href="#google-drive-active" class="sprite-symbol-usage" /><use id="ic-arrow-1-usage" xlink:href="#ic-arrow-1" class="sprite-symbol-usage" /><use id="ic-arrow-2-usage" xlink:href="#ic-arrow-2" class="sprite-symbol-usage" /><use id="ic-close-usage" xlink:href="#ic-close" class="sprite-symbol-usage" /><use id="ic-logo-usage" xlink:href="#ic-logo" class="sprite-symbol-usage" /><use id="ic-rename-usage" xlink:href="#ic-rename" class="sprite-symbol-usage" /><use id="ic-search-usage" xlink:href="#ic-search" class="sprite-symbol-usage" /><use id="ic-stage-1-usage" xlink:href="#ic-stage-1" class="sprite-symbol-usage" /><use id="ic-stage-2-usage" xlink:href="#ic-stage-2" class="sprite-symbol-usage" /><use id="ic-stage-3-usage" xlink:href="#ic-stage-3" class="sprite-symbol-usage" /><use id="ic-stage-4-usage" xlink:href="#ic-stage-4" class="sprite-symbol-usage" /><use id="ic-start-usage" xlink:href="#ic-start" class="sprite-symbol-usage" /><use id="ic-trade-active-usage" xlink:href="#ic-trade-active" class="sprite-symbol-usage" /><use id="icon-info-blue-usage" xlink:href="#icon-info-blue" class="sprite-symbol-usage" /><use id="icon-info-outline-usage" xlink:href="#icon-info-outline" class="sprite-symbol-usage" /><use id="new-file-usage" xlink:href="#new-file" class="sprite-symbol-usage" /><use id="open-usage" xlink:href="#open" class="sprite-symbol-usage" /><use id="performance-window-usage" xlink:href="#performance-window" class="sprite-symbol-usage" /><use id="rearrange-usage" xlink:href="#rearrange" class="sprite-symbol-usage" /><use id="redo-usage" xlink:href="#redo" class="sprite-symbol-usage" /><use id="run-icon-usage" xlink:href="#run-icon" class="sprite-symbol-usage" /><use id="save-usage" xlink:href="#save" class="sprite-symbol-usage" /><use id="shape-usage" xlink:href="#shape" class="sprite-symbol-usage" /><use id="stop-icon-usage" xlink:href="#stop-icon" class="sprite-symbol-usage" /><use id="undo-usage" xlink:href="#undo" class="sprite-symbol-usage" /><use id="zoom-in-usage" xlink:href="#zoom-in" class="sprite-symbol-usage" /><use id="zoom-out-usage" xlink:href="#zoom-out" class="sprite-symbol-usage" /></svg>